<svg xmlns="http://www.w3.org/2000/svg" xmlns:xlink="http://www.w3.org/1999/xlink" id="Layer_1" x="0" y="0" version="1.1" viewBox="0 0 512 512" xml:space="preserve" style="enable-background:new 0 0 512 512"><style type="text/css">.st0{fill:url(#SVGID_1_)}.st1{fill:#fff;stroke:url(#SVGID_2_);stroke-width:15;stroke-miterlimit:10}.st2{fill:url(#SVGID_3_)}.st3{fill:url(#SVGID_4_)}.st4,.st5,.st6{fill:#fff;stroke:url(#SVGID_5_);stroke-width:15;stroke-miterlimit:10}.st5,.st6{stroke:url(#SVGID_6_);stroke-width:10;stroke-linecap:round}.st6{stroke:url(#SVGID_7_)}.st7{fill:url(#SVGID_8_)}.st8{fill:#fff;stroke:url(#SVGID_9_);stroke-width:15;stroke-miterlimit:10}.st9{fill:url(#SVGID_10_)}.st10{fill:url(#SVGID_11_)}.st11{fill:#fff;stroke:url(#SVGID_12_);stroke-width:15;stroke-miterlimit:10}.st12{fill:url(#SVGID_13_)}</style><g><g><linearGradient id="SVGID_1_" x1=".327" x2="189.23" y1="417.752" y2="417.752" gradientTransform="matrix(1 0 0 -1 0 512)" gradientUnits="userSpaceOnUse"><stop offset="0" style="stop-color:#80d8ff"/><stop offset="1" style="stop-color:#ea80fc"/></linearGradient><path d="M0.3,35.2v-28c0-4.1,3.3-7.4,7.4-7.4h28c4.1,0,7.4,3.3,7.4,7.4s-3.3,7.4-7.4,7.4H15.1v20.7 c0,4.1-3.3,7.4-7.4,7.4S0.3,39.3,0.3,35.2z M181.9-0.2h-28c-4.1,0-7.4,3.3-7.4,7.4s3.3,7.4,7.4,7.4h20.7v20.7 c0,4.1,3.3,7.4,7.4,7.4c4.1,0,7.4-3.3,7.4-7.4v-28C189.2,3.1,185.9-0.2,181.9-0.2z M35.7,173.9H15.1v-20.7c0-4.1-3.3-7.4-7.4-7.4 s-7.4,3.3-7.4,7.4v28c0,4.1,3.3,7.4,7.4,7.4h28c4.1,0,7.4-3.3,7.4-7.4C43.1,177.2,39.8,173.9,35.7,173.9z M181.9,145.9 c-4.1,0-7.4,3.3-7.4,7.4v20.7h-20.7c-4.1,0-7.4,3.3-7.4,7.4c0,4.1,3.3,7.4,7.4,7.4h28c4.1,0,7.4-3.3,7.4-7.4v-28 C189.2,149.2,185.9,145.9,181.9,145.9z M88.3,36.1v44.3c0,4.1-3.3,7.4-7.4,7.4H36.7c-4.1,0-7.4-3.3-7.4-7.4V36.1 c0-4.1,3.3-7.4,7.4-7.4h44.3C85,28.8,88.3,32.1,88.3,36.1z M73.6,43.5H44V73h29.5V43.5z M156.6,87.8h-44.3c-4.1,0-7.4-3.3-7.4-7.4 V36.1c0-4.1,3.3-7.4,7.4-7.4h44.3c4.1,0,7.4,3.3,7.4,7.4v44.3C164,84.5,160.7,87.8,156.6,87.8z M149.2,43.5h-29.5V73h29.5V43.5z M88.3,111.8V156c0,4.1-3.3,7.4-7.4,7.4H36.7c-4.1,0-7.4-3.3-7.4-7.4v-44.3c0-4.1,3.3-7.4,7.4-7.4h44.3 C85,104.4,88.3,107.7,88.3,111.8z M73.6,119.2H44v29.5h29.5V119.2z M147.1,153.9h-25.3c-4.1,0-7.4-3.3-7.4-7.4v-25.3 c0-4.1,3.3-7.4,7.4-7.4h25.3c4.1,0,7.4,3.3,7.4,7.4v25.3C154.5,150.6,151.2,153.9,147.1,153.9z M139.7,128.7h-10.5v10.5h10.5 V128.7z" class="st0"/><linearGradient id="SVGID_2_" x1="119.1" x2="224.388" y1="159.786" y2="159.786" gradientUnits="userSpaceOnUse"><stop offset="0" style="stop-color:#80d8ff"/><stop offset="1" style="stop-color:#ea80fc"/></linearGradient><circle cx="171.7" cy="159.8" r="45.1" class="st1"/><linearGradient id="SVGID_3_" x1="150.225" x2="196.399" y1="158.347" y2="158.347" gradientUnits="userSpaceOnUse"><stop offset="0" style="stop-color:#80d8ff"/><stop offset="1" style="stop-color:#ea80fc"/></linearGradient><path d="M195.4,146.2c1.6,2,1.3,4.9-0.7,6.5c0,0,0,0,0,0l-23.1,18.5c-1.8,1.5-4.5,1.3-6.1-0.3L151.6,157 c-1.8-1.8-1.8-4.7,0-6.5c1.8-1.8,4.7-1.8,6.5,0l10.9,10.9l19.9-15.9C190.9,143.9,193.8,144.2,195.4,146.2 C195.4,146.2,195.4,146.2,195.4,146.2z" class="st2"/></g><g><linearGradient id="SVGID_4_" x1="286.971" x2="475.874" y1="417.752" y2="417.752" gradientTransform="matrix(1 0 0 -1 0 512)" gradientUnits="userSpaceOnUse"><stop offset="0" style="stop-color:#80d8ff"/><stop offset="1" style="stop-color:#ea80fc"/></linearGradient><path d="M287,35.2v-28c0-4.1,3.3-7.4,7.4-7.4h28c4.1,0,7.4,3.3,7.4,7.4s-3.3,7.4-7.4,7.4h-20.7v20.7 c0,4.1-3.3,7.4-7.4,7.4S287,39.3,287,35.2z M468.5-0.2h-28c-4.1,0-7.4,3.3-7.4,7.4s3.3,7.4,7.4,7.4h20.7v20.7 c0,4.1,3.3,7.4,7.4,7.4c4.1,0,7.4-3.3,7.4-7.4v-28C475.9,3.1,472.6-0.2,468.5-0.2z M322.4,173.9h-20.7v-20.7 c0-4.1-3.3-7.4-7.4-7.4s-7.4,3.3-7.4,7.4v28c0,4.1,3.3,7.4,7.4,7.4h28c4.1,0,7.4-3.3,7.4-7.4C329.8,177.2,326.5,173.9,322.4,173.9 z M468.5,145.9c-4.1,0-7.4,3.3-7.4,7.4v20.7h-20.7c-4.1,0-7.4,3.3-7.4,7.4c0,4.1,3.3,7.4,7.4,7.4h28c4.1,0,7.4-3.3,7.4-7.4v-28 C475.9,149.2,472.6,145.9,468.5,145.9z M375,36.1v44.3c0,4.1-3.3,7.4-7.4,7.4h-44.3c-4.1,0-7.4-3.3-7.4-7.4V36.1 c0-4.1,3.3-7.4,7.4-7.4h44.3C371.7,28.8,375,32.1,375,36.1z M360.2,43.5h-29.5V73h29.5V43.5z M443.2,87.8h-44.3 c-4.1,0-7.4-3.3-7.4-7.4V36.1c0-4.1,3.3-7.4,7.4-7.4h44.3c4.1,0,7.4,3.3,7.4,7.4v44.3C450.6,84.5,447.3,87.8,443.2,87.8z M435.8,43.5h-29.5V73h29.5V43.5z M375,111.8V156c0,4.1-3.3,7.4-7.4,7.4h-44.3c-4.1,0-7.4-3.3-7.4-7.4v-44.3 c0-4.1,3.3-7.4,7.4-7.4h44.3C371.7,104.4,375,107.7,375,111.8z M360.2,119.2h-29.5v29.5h29.5V119.2z M433.7,153.9h-25.3 c-4.1,0-7.4-3.3-7.4-7.4v-25.3c0-4.1,3.3-7.4,7.4-7.4h25.3c4.1,0,7.4,3.3,7.4,7.4v25.3C441.1,150.6,437.8,153.9,433.7,153.9z M426.3,128.7h-10.5v10.5h10.5V128.7z" class="st3"/><linearGradient id="SVGID_5_" x1="405.743" x2="511.032" y1="159.786" y2="159.786" gradientUnits="userSpaceOnUse"><stop offset="0" style="stop-color:#80d8ff"/><stop offset="1" style="stop-color:#ea80fc"/></linearGradient><circle cx="458.4" cy="159.8" r="45.1" class="st4"/><g><linearGradient id="SVGID_6_" x1="439.22" x2="478.775" y1="159.99" y2="159.99" gradientUnits="userSpaceOnUse"><stop offset="0" style="stop-color:#80d8ff"/><stop offset="1" style="stop-color:#ea80fc"/></linearGradient><line x1="473.8" x2="444.2" y1="147.5" y2="172.5" class="st5"/><linearGradient id="SVGID_7_" x1="439.22" x2="478.775" y1="159.99" y2="159.99" gradientUnits="userSpaceOnUse"><stop offset="0" style="stop-color:#80d8ff"/><stop offset="1" style="stop-color:#ea80fc"/></linearGradient><line x1="444.2" x2="473.8" y1="147.5" y2="172.5" class="st6"/></g></g><g><linearGradient id="SVGID_8_" x1=".327" x2="189.23" y1="119.772" y2="119.772" gradientTransform="matrix(1 0 0 -1 0 512)" gradientUnits="userSpaceOnUse"><stop offset="0" style="stop-color:#80d8ff"/><stop offset="1" style="stop-color:#ea80fc"/></linearGradient><path d="M0.3,333.2v-28c0-4.1,3.3-7.4,7.4-7.4h28c4.1,0,7.4,3.3,7.4,7.4s-3.3,7.4-7.4,7.4H15.1v20.7 c0,4.1-3.3,7.4-7.4,7.4S0.3,337.3,0.3,333.2z M181.9,297.8h-28c-4.1,0-7.4,3.3-7.4,7.4s3.3,7.4,7.4,7.4h20.7v20.7 c0,4.1,3.3,7.4,7.4,7.4c4.1,0,7.4-3.3,7.4-7.4v-28C189.2,301.1,185.9,297.8,181.9,297.8z M35.7,471.9H15.1v-20.7 c0-4.1-3.3-7.4-7.4-7.4s-7.4,3.3-7.4,7.4v28c0,4.1,3.3,7.4,7.4,7.4h28c4.1,0,7.4-3.3,7.4-7.4S39.8,471.9,35.7,471.9z M181.9,443.9 c-4.1,0-7.4,3.3-7.4,7.4v20.7h-20.7c-4.1,0-7.4,3.3-7.4,7.4s3.3,7.4,7.4,7.4h28c4.1,0,7.4-3.3,7.4-7.4v-28 C189.2,447.2,185.9,443.9,181.9,443.9z M88.3,334.1v44.3c0,4.1-3.3,7.4-7.4,7.4H36.7c-4.1,0-7.4-3.3-7.4-7.4v-44.3 c0-4.1,3.3-7.4,7.4-7.4h44.3C85,326.7,88.3,330,88.3,334.1z M73.6,341.5H44V371h29.5V341.5z M156.6,385.8h-44.3 c-4.1,0-7.4-3.3-7.4-7.4v-44.3c0-4.1,3.3-7.4,7.4-7.4h44.3c4.1,0,7.4,3.3,7.4,7.4v44.3C164,382.5,160.7,385.8,156.6,385.8z M149.2,341.5h-29.5V371h29.5V341.5z M88.3,409.8V454c0,4.1-3.3,7.4-7.4,7.4H36.7c-4.1,0-7.4-3.3-7.4-7.4v-44.3 c0-4.1,3.3-7.4,7.4-7.4h44.3C85,402.4,88.3,405.7,88.3,409.8z M73.6,417.1H44v29.5h29.5V417.1z M147.1,451.9h-25.3 c-4.1,0-7.4-3.3-7.4-7.4v-25.3c0-4.1,3.3-7.4,7.4-7.4h25.3c4.1,0,7.4,3.3,7.4,7.4v25.3C154.5,448.6,151.2,451.9,147.1,451.9z M139.7,426.6h-10.5v10.5h10.5V426.6z" class="st7"/><linearGradient id="SVGID_9_" x1="119.1" x2="224.388" y1="457.765" y2="457.765" gradientUnits="userSpaceOnUse"><stop offset="0" style="stop-color:#80d8ff"/><stop offset="1" style="stop-color:#ea80fc"/></linearGradient><circle cx="171.7" cy="457.8" r="45.1" class="st8"/><linearGradient id="SVGID_10_" x1="150.225" x2="196.399" y1="456.327" y2="456.327" gradientUnits="userSpaceOnUse"><stop offset="0" style="stop-color:#80d8ff"/><stop offset="1" style="stop-color:#ea80fc"/></linearGradient><path d="M195.4,444.2c1.6,2,1.3,4.9-0.7,6.5c0,0,0,0,0,0l-23.1,18.5c-1.8,1.5-4.5,1.3-6.1-0.3L151.6,455 c-1.8-1.8-1.8-4.7,0-6.5c1.8-1.8,4.7-1.8,6.5,0l10.9,10.9l19.9-15.9C190.9,441.9,193.8,442.2,195.4,444.2 C195.4,444.2,195.4,444.2,195.4,444.2z" class="st9"/></g><g><linearGradient id="SVGID_11_" x1="286.971" x2="475.874" y1="119.772" y2="119.772" gradientTransform="matrix(1 0 0 -1 0 512)" gradientUnits="userSpaceOnUse"><stop offset="0" style="stop-color:#80d8ff"/><stop offset="1" style="stop-color:#ea80fc"/></linearGradient><path d="M287,333.2v-28c0-4.1,3.3-7.4,7.4-7.4h28c4.1,0,7.4,3.3,7.4,7.4s-3.3,7.4-7.4,7.4h-20.7v20.7 c0,4.1-3.3,7.4-7.4,7.4S287,337.3,287,333.2z M468.5,297.8h-28c-4.1,0-7.4,3.3-7.4,7.4s3.3,7.4,7.4,7.4h20.7v20.7 c0,4.1,3.3,7.4,7.4,7.4c4.1,0,7.4-3.3,7.4-7.4v-28C475.9,301.1,472.6,297.8,468.5,297.8z M322.4,471.9h-20.7v-20.7 c0-4.1-3.3-7.4-7.4-7.4s-7.4,3.3-7.4,7.4v28c0,4.1,3.3,7.4,7.4,7.4h28c4.1,0,7.4-3.3,7.4-7.4S326.5,471.9,322.4,471.9z M468.5,443.9c-4.1,0-7.4,3.3-7.4,7.4v20.7h-20.7c-4.1,0-7.4,3.3-7.4,7.4s3.3,7.4,7.4,7.4h28c4.1,0,7.4-3.3,7.4-7.4v-28 C475.9,447.2,472.6,443.9,468.5,443.9z M375,334.1v44.3c0,4.1-3.3,7.4-7.4,7.4h-44.3c-4.1,0-7.4-3.3-7.4-7.4v-44.3 c0-4.1,3.3-7.4,7.4-7.4h44.3C371.7,326.7,375,330,375,334.1z M360.2,341.5h-29.5V371h29.5V341.5z M443.2,385.8h-44.3 c-4.1,0-7.4-3.3-7.4-7.4v-44.3c0-4.1,3.3-7.4,7.4-7.4h44.3c4.1,0,7.4,3.3,7.4,7.4v44.3C450.6,382.5,447.3,385.8,443.2,385.8z M435.8,341.5h-29.5V371h29.5V341.5z M375,409.8V454c0,4.1-3.3,7.4-7.4,7.4h-44.3c-4.1,0-7.4-3.3-7.4-7.4v-44.3 c0-4.1,3.3-7.4,7.4-7.4h44.3C371.7,402.4,375,405.7,375,409.8z M360.2,417.1h-29.5v29.5h29.5V417.1z M433.7,451.9h-25.3 c-4.1,0-7.4-3.3-7.4-7.4v-25.3c0-4.1,3.3-7.4,7.4-7.4h25.3c4.1,0,7.4,3.3,7.4,7.4v25.3C441.1,448.6,437.8,451.9,433.7,451.9z M426.3,426.6h-10.5v10.5h10.5V426.6z" class="st10"/><linearGradient id="SVGID_12_" x1="405.743" x2="511.032" y1="457.765" y2="457.765" gradientUnits="userSpaceOnUse"><stop offset="0" style="stop-color:#80d8ff"/><stop offset="1" style="stop-color:#ea80fc"/></linearGradient><circle cx="458.4" cy="457.8" r="45.1" class="st11"/><linearGradient id="SVGID_13_" x1="436.868" x2="483.043" y1="456.327" y2="456.327" gradientUnits="userSpaceOnUse"><stop offset="0" style="stop-color:#80d8ff"/><stop offset="1" style="stop-color:#ea80fc"/></linearGradient><path d="M482,444.2c1.6,2,1.3,4.9-0.7,6.5c0,0,0,0,0,0l-23.1,18.5c-1.8,1.5-4.5,1.3-6.1-0.3L438.2,455 c-1.8-1.8-1.8-4.7,0-6.5c1.8-1.8,4.7-1.8,6.5,0l10.9,10.9l19.9-15.9C477.5,441.9,480.4,442.2,482,444.2 C482,444.2,482,444.2,482,444.2z" class="st12"/></g></g></svg>